<mxfile host="app.diagrams.net" modified="2021-03-24T02:27:30.915Z" agent="5.0 (Macintosh; Intel Mac OS X 10_15_6) AppleWebKit/537.36 (KHTML, like Gecko) Chrome/88.0.4324.192 Safari/537.36" etag="CLmBx2ZJGLUaCbVjtVeZ" version="14.5.1" type="github">
  <diagram name="Page-1" id="2c0d36ab-eaac-3732-788b-9136903baeff">
    <mxGraphModel dx="946" dy="613" grid="1" gridSize="10" guides="1" tooltips="1" connect="1" arrows="1" fold="1" page="1" pageScale="1.5" pageWidth="1169" pageHeight="827" background="#ffffff" math="0" shadow="0">
      <root>
        <mxCell id="0" />
        <mxCell id="1" parent="0" />
        <mxCell id="123" value="" style="fillColor=#AE4132;strokeColor=none;opacity=30;" parent="1" vertex="1">
          <mxGeometry x="747" y="175.50000000000003" width="210" height="99.99999999999994" as="geometry" />
        </mxCell>
        <mxCell id="122" value="" style="fillColor=#10739E;strokeColor=none;opacity=30;" parent="1" vertex="1">
          <mxGeometry x="97" y="325.5" width="1633" height="100" as="geometry" />
        </mxCell>
        <mxCell id="112" value="" style="fillColor=#10739E;strokeColor=none;opacity=30;" parent="1" vertex="1">
          <mxGeometry x="226.99999999999997" y="895.5" width="150" height="80" as="geometry" />
        </mxCell>
        <mxCell id="2" value="OKR" style="rounded=1;fillColor=#23445D;gradientColor=none;strokeColor=none;fontColor=#FFFFFF;fontStyle=1;fontFamily=Tahoma;fontSize=14" parent="1" vertex="1">
          <mxGeometry x="757" y="185.5" width="133" height="80" as="geometry" />
        </mxCell>
        <mxCell id="4" value="&#xa;&#xa;&#xa;					&#xa;OKR使用的六大场景 &#xa;				&#xa;			&#xa;					&#xa;		" style="rounded=1;fillColor=#23445D;gradientColor=none;strokeColor=none;fontColor=#FFFFFF;fontStyle=1;fontFamily=Tahoma;fontSize=14" parent="1" vertex="1">
          <mxGeometry x="1483.9999999999998" y="335.5" width="190" height="80" as="geometry" />
        </mxCell>
        <mxCell id="9" value="" style="edgeStyle=elbowEdgeStyle;elbow=vertical;strokeWidth=2;rounded=0" parent="1" source="2" target="4" edge="1">
          <mxGeometry x="337" y="215.5" width="100" height="100" as="geometry">
            <mxPoint x="337" y="315.5" as="sourcePoint" />
            <mxPoint x="437" y="215.5" as="targetPoint" />
          </mxGeometry>
        </mxCell>
        <mxCell id="10" value="&#xa;&#xa;&#xa;评估OKR实施成果 &#xa;				&#xa;			&#xa;		" style="rounded=1;fillColor=#23445D;gradientColor=none;strokeColor=none;fontColor=#FFFFFF;fontStyle=1;fontFamily=Tahoma;fontSize=14" parent="1" vertex="1">
          <mxGeometry x="947" y="335.5" width="190" height="80" as="geometry" />
        </mxCell>
        <mxCell id="12" value="&#xa;讨论关键结果，复盘OKR实施过程中的问题" style="rounded=1;fillColor=#23445D;gradientColor=none;strokeColor=none;fontColor=#FFFFFF;fontStyle=1;fontFamily=Tahoma;fontSize=14" parent="1" vertex="1">
          <mxGeometry x="460" y="335.5" width="292" height="80" as="geometry" />
        </mxCell>
        <mxCell id="13" value="&#xa;确定目标，确保团队聚焦到重要目标上 &#xa;		" style="rounded=1;fillColor=#23445D;gradientColor=none;strokeColor=none;fontColor=#FFFFFF;fontStyle=1;fontFamily=Tahoma;fontSize=14;verticalAlign=middle;labelPosition=center;verticalLabelPosition=middle;align=center;" parent="1" vertex="1">
          <mxGeometry x="107" y="335.5" width="273" height="80" as="geometry" />
        </mxCell>
        <mxCell id="16" value="Programming" style="rounded=1;fillColor=#23445D;gradientColor=none;strokeColor=none;fontColor=#FFFFFF;fontStyle=1;fontFamily=Tahoma;fontSize=14" parent="1" vertex="1">
          <mxGeometry x="237" y="455.5" width="130" height="60" as="geometry" />
        </mxCell>
        <mxCell id="17" value="HTTP" style="rounded=1;fillColor=#23445D;gradientColor=none;strokeColor=none;fontColor=#FFFFFF;fontStyle=1;fontFamily=Tahoma;fontSize=14" parent="1" vertex="1">
          <mxGeometry x="237" y="545.5" width="130" height="60" as="geometry" />
        </mxCell>
        <mxCell id="18" value="HTS" style="rounded=1;fillColor=#23445D;gradientColor=none;strokeColor=none;fontColor=#FFFFFF;fontStyle=1;fontFamily=Tahoma;fontSize=14" parent="1" vertex="1">
          <mxGeometry x="237" y="635.5" width="130" height="60" as="geometry" />
        </mxCell>
        <mxCell id="19" value="CVS" style="rounded=1;fillColor=#23445D;gradientColor=none;strokeColor=none;fontColor=#FFFFFF;fontStyle=1;fontFamily=Tahoma;fontSize=14" parent="1" vertex="1">
          <mxGeometry x="237" y="725.5" width="130" height="60" as="geometry" />
        </mxCell>
        <mxCell id="20" value="Client / Server" style="rounded=1;fillColor=#23445D;gradientColor=none;strokeColor=none;fontColor=#FFFFFF;fontStyle=1;fontFamily=Tahoma;fontSize=14" parent="1" vertex="1">
          <mxGeometry x="237" y="815.5" width="130" height="60" as="geometry" />
        </mxCell>
        <mxCell id="23" value="Data Collection" style="rounded=1;fillColor=#23445D;gradientColor=none;strokeColor=none;fontColor=#FFFFFF;fontStyle=1;fontFamily=Tahoma;fontSize=14" parent="1" vertex="1">
          <mxGeometry x="237" y="905.4999999999999" width="130" height="60" as="geometry" />
        </mxCell>
        <mxCell id="33" value="XMI" style="rounded=1;fillColor=#23445D;gradientColor=none;strokeColor=none;fontColor=#FFFFFF;fontStyle=1;fontFamily=Tahoma;fontSize=14" parent="1" vertex="1">
          <mxGeometry x="540" y="455.5" width="130" height="60" as="geometry" />
        </mxCell>
        <mxCell id="34" value="Programming" style="rounded=1;fillColor=#23445D;gradientColor=none;strokeColor=none;fontColor=#FFFFFF;fontStyle=1;fontFamily=Tahoma;fontSize=14" parent="1" vertex="1">
          <mxGeometry x="540" y="545.5" width="130" height="60" as="geometry" />
        </mxCell>
        <mxCell id="35" value="HTTP" style="rounded=1;fillColor=#23445D;gradientColor=none;strokeColor=none;fontColor=#FFFFFF;fontStyle=1;fontFamily=Tahoma;fontSize=14" parent="1" vertex="1">
          <mxGeometry x="540" y="635.5" width="130" height="60" as="geometry" />
        </mxCell>
        <mxCell id="36" value="HTS" style="rounded=1;fillColor=#23445D;gradientColor=none;strokeColor=none;fontColor=#FFFFFF;fontStyle=1;fontFamily=Tahoma;fontSize=14" parent="1" vertex="1">
          <mxGeometry x="540" y="725.5" width="130" height="60" as="geometry" />
        </mxCell>
        <mxCell id="37" value="CVS" style="rounded=1;fillColor=#23445D;gradientColor=none;strokeColor=none;fontColor=#FFFFFF;fontStyle=1;fontFamily=Tahoma;fontSize=14" parent="1" vertex="1">
          <mxGeometry x="540" y="815.5" width="130" height="60" as="geometry" />
        </mxCell>
        <mxCell id="38" value="Client / Server" style="rounded=1;fillColor=#23445D;gradientColor=none;strokeColor=none;fontColor=#FFFFFF;fontStyle=1;fontFamily=Tahoma;fontSize=14" parent="1" vertex="1">
          <mxGeometry x="540" y="905.5" width="130" height="60" as="geometry" />
        </mxCell>
        <mxCell id="39" value="Data Collection" style="rounded=1;fillColor=#23445D;gradientColor=none;strokeColor=none;fontColor=#FFFFFF;fontStyle=1;fontFamily=Tahoma;fontSize=14" parent="1" vertex="1">
          <mxGeometry x="540" y="995.5" width="130" height="60" as="geometry" />
        </mxCell>
        <mxCell id="59" value="" style="edgeStyle=elbowEdgeStyle;elbow=vertical;strokeWidth=2;rounded=0" parent="1" source="2" target="12" edge="1">
          <mxGeometry x="347" y="225.5" width="100" height="100" as="geometry">
            <mxPoint x="861.9999999999999" y="275.5" as="sourcePoint" />
            <mxPoint x="1466.9999999999998" y="345.5" as="targetPoint" />
          </mxGeometry>
        </mxCell>
        <mxCell id="61" value="" style="edgeStyle=elbowEdgeStyle;elbow=vertical;strokeWidth=2;rounded=0" parent="1" source="2" target="13" edge="1">
          <mxGeometry x="-23" y="135.5" width="100" height="100" as="geometry">
            <mxPoint x="-23" y="235.5" as="sourcePoint" />
            <mxPoint x="77" y="135.5" as="targetPoint" />
          </mxGeometry>
        </mxCell>
        <mxCell id="64" value="" style="edgeStyle=elbowEdgeStyle;elbow=horizontal;strokeWidth=2;rounded=0" parent="1" source="13" target="16" edge="1">
          <mxGeometry x="-23" y="135.5" width="100" height="100" as="geometry">
            <mxPoint x="-23" y="235.5" as="sourcePoint" />
            <mxPoint x="77" y="135.5" as="targetPoint" />
            <Array as="points">
              <mxPoint x="202" y="435.5" />
            </Array>
          </mxGeometry>
        </mxCell>
        <mxCell id="65" value="" style="edgeStyle=elbowEdgeStyle;elbow=horizontal;strokeWidth=2;rounded=0" parent="1" source="13" target="17" edge="1">
          <mxGeometry x="-23" y="135.5" width="100" height="100" as="geometry">
            <mxPoint x="-23" y="235.5" as="sourcePoint" />
            <mxPoint x="77" y="135.5" as="targetPoint" />
            <Array as="points">
              <mxPoint x="202" y="475.5" />
            </Array>
          </mxGeometry>
        </mxCell>
        <mxCell id="66" value="" style="edgeStyle=elbowEdgeStyle;elbow=horizontal;strokeWidth=2;rounded=0" parent="1" source="13" target="18" edge="1">
          <mxGeometry x="-23" y="135.5" width="100" height="100" as="geometry">
            <mxPoint x="-23" y="235.5" as="sourcePoint" />
            <mxPoint x="77" y="135.5" as="targetPoint" />
            <Array as="points">
              <mxPoint x="202" y="525.5" />
            </Array>
          </mxGeometry>
        </mxCell>
        <mxCell id="67" value="" style="edgeStyle=elbowEdgeStyle;elbow=horizontal;strokeWidth=2;rounded=0" parent="1" source="13" target="19" edge="1">
          <mxGeometry x="-23" y="135.5" width="100" height="100" as="geometry">
            <mxPoint x="-23" y="235.5" as="sourcePoint" />
            <mxPoint x="77" y="135.5" as="targetPoint" />
            <Array as="points">
              <mxPoint x="202" y="575.5" />
            </Array>
          </mxGeometry>
        </mxCell>
        <mxCell id="68" value="" style="edgeStyle=elbowEdgeStyle;elbow=horizontal;strokeWidth=2;rounded=0" parent="1" source="13" target="20" edge="1">
          <mxGeometry x="-23" y="135.5" width="100" height="100" as="geometry">
            <mxPoint x="-23" y="235.5" as="sourcePoint" />
            <mxPoint x="77" y="135.5" as="targetPoint" />
            <Array as="points">
              <mxPoint x="202" y="615.5" />
            </Array>
          </mxGeometry>
        </mxCell>
        <mxCell id="69" value="" style="edgeStyle=elbowEdgeStyle;elbow=horizontal;strokeWidth=2;rounded=0" parent="1" source="13" target="23" edge="1">
          <mxGeometry x="-23" y="135.5" width="100" height="100" as="geometry">
            <mxPoint x="-23" y="235.5" as="sourcePoint" />
            <mxPoint x="77" y="135.5" as="targetPoint" />
            <Array as="points">
              <mxPoint x="202" y="665.5" />
            </Array>
          </mxGeometry>
        </mxCell>
        <mxCell id="76" value="" style="edgeStyle=elbowEdgeStyle;elbow=horizontal;strokeWidth=2;rounded=0" parent="1" source="33" target="34" edge="1">
          <mxGeometry x="-250" y="135.5" width="100" height="100" as="geometry">
            <mxPoint x="-250" y="235.5" as="sourcePoint" />
            <mxPoint x="-150" y="135.5" as="targetPoint" />
            <Array as="points">
              <mxPoint x="520" y="535.5" />
            </Array>
          </mxGeometry>
        </mxCell>
        <mxCell id="77" value="" style="edgeStyle=elbowEdgeStyle;elbow=horizontal;strokeWidth=2;rounded=0" parent="1" source="33" target="35" edge="1">
          <mxGeometry x="-250" y="135.5" width="100" height="100" as="geometry">
            <mxPoint x="-250" y="235.5" as="sourcePoint" />
            <mxPoint x="-150" y="135.5" as="targetPoint" />
            <Array as="points">
              <mxPoint x="520" y="575.5" />
            </Array>
          </mxGeometry>
        </mxCell>
        <mxCell id="78" value="" style="edgeStyle=elbowEdgeStyle;elbow=horizontal;strokeWidth=2;rounded=0" parent="1" source="33" target="36" edge="1">
          <mxGeometry x="-250" y="135.5" width="100" height="100" as="geometry">
            <mxPoint x="-250" y="235.5" as="sourcePoint" />
            <mxPoint x="-150" y="135.5" as="targetPoint" />
            <Array as="points">
              <mxPoint x="520" y="625.5" />
            </Array>
          </mxGeometry>
        </mxCell>
        <mxCell id="79" value="" style="edgeStyle=elbowEdgeStyle;elbow=horizontal;strokeWidth=2;rounded=0" parent="1" source="33" target="37" edge="1">
          <mxGeometry x="-250" y="135.5" width="100" height="100" as="geometry">
            <mxPoint x="-250" y="235.5" as="sourcePoint" />
            <mxPoint x="-150" y="135.5" as="targetPoint" />
            <Array as="points">
              <mxPoint x="520" y="665.5" />
            </Array>
          </mxGeometry>
        </mxCell>
        <mxCell id="80" value="" style="edgeStyle=elbowEdgeStyle;elbow=horizontal;strokeWidth=2;rounded=0" parent="1" source="33" target="38" edge="1">
          <mxGeometry x="-250" y="135.5" width="100" height="100" as="geometry">
            <mxPoint x="-250" y="235.5" as="sourcePoint" />
            <mxPoint x="-150" y="135.5" as="targetPoint" />
            <Array as="points">
              <mxPoint x="520" y="705.5" />
            </Array>
          </mxGeometry>
        </mxCell>
        <mxCell id="81" value="" style="edgeStyle=elbowEdgeStyle;elbow=horizontal;strokeWidth=2;rounded=0" parent="1" source="33" target="39" edge="1">
          <mxGeometry x="-250" y="135.5" width="100" height="100" as="geometry">
            <mxPoint x="-250" y="235.5" as="sourcePoint" />
            <mxPoint x="-150" y="135.5" as="targetPoint" />
            <Array as="points">
              <mxPoint x="520" y="755.5" />
            </Array>
          </mxGeometry>
        </mxCell>
        <mxCell id="101" value="" style="edgeStyle=elbowEdgeStyle;elbow=vertical;strokeWidth=2;rounded=0" parent="1" source="12" edge="1">
          <mxGeometry x="-23" y="135.5" width="100" height="100" as="geometry">
            <mxPoint x="-23" y="235.5" as="sourcePoint" />
            <mxPoint x="606" y="456" as="targetPoint" />
          </mxGeometry>
        </mxCell>
        <mxCell id="103" value="" style="edgeStyle=elbowEdgeStyle;elbow=vertical;strokeWidth=2;rounded=0" parent="1" source="10" edge="1">
          <mxGeometry x="-23" y="135.5" width="100" height="100" as="geometry">
            <mxPoint x="-23" y="235.5" as="sourcePoint" />
            <mxPoint x="1042" y="455.5" as="targetPoint" />
          </mxGeometry>
        </mxCell>
        <mxCell id="104" value="" style="edgeStyle=elbowEdgeStyle;elbow=vertical;strokeWidth=2;rounded=0" parent="1" source="4" edge="1">
          <mxGeometry x="99" y="135.5" width="100" height="100" as="geometry">
            <mxPoint x="99" y="235.5" as="sourcePoint" />
            <mxPoint x="1579" y="455.5" as="targetPoint" />
          </mxGeometry>
        </mxCell>
        <mxCell id="4ola4s-RT9T-j_ui_mHm-124" value="" style="edgeStyle=elbowEdgeStyle;elbow=vertical;strokeWidth=2;rounded=0;" edge="1" parent="1">
          <mxGeometry x="-29" y="22.5" width="100" height="100" as="geometry">
            <mxPoint x="1039" y="303" as="sourcePoint" />
            <mxPoint x="1039" y="336" as="targetPoint" />
          </mxGeometry>
        </mxCell>
        <mxCell id="4ola4s-RT9T-j_ui_mHm-125" value="&#xa;影响目标达成的关键因素 &#xa;		" style="rounded=1;fillColor=#23445D;gradientColor=none;strokeColor=none;fontColor=#FFFFFF;fontStyle=1;fontFamily=Tahoma;fontSize=14" vertex="1" parent="1">
          <mxGeometry x="1180" y="335.5" width="190" height="80" as="geometry" />
        </mxCell>
        <mxCell id="4ola4s-RT9T-j_ui_mHm-126" value="" style="edgeStyle=elbowEdgeStyle;elbow=vertical;strokeWidth=2;rounded=0;entryX=0.5;entryY=0;entryDx=0;entryDy=0;" edge="1" parent="1" target="4ola4s-RT9T-j_ui_mHm-125">
          <mxGeometry x="-1" y="32.5" width="100" height="100" as="geometry">
            <mxPoint x="1275" y="300" as="sourcePoint" />
            <mxPoint x="1067" y="346" as="targetPoint" />
          </mxGeometry>
        </mxCell>
        <mxCell id="4ola4s-RT9T-j_ui_mHm-135" value="季度会议" style="rounded=1;fillColor=#23445D;gradientColor=none;strokeColor=none;fontColor=#FFFFFF;fontStyle=1;fontFamily=Tahoma;fontSize=14" vertex="1" parent="1">
          <mxGeometry x="1510" y="455.5" width="130" height="60" as="geometry" />
        </mxCell>
        <mxCell id="4ola4s-RT9T-j_ui_mHm-136" value="与公司目标关联" style="rounded=1;fillColor=#23445D;gradientColor=none;strokeColor=none;fontColor=#FFFFFF;fontStyle=1;fontFamily=Tahoma;fontSize=14" vertex="1" parent="1">
          <mxGeometry x="1510" y="545.5" width="130" height="60" as="geometry" />
        </mxCell>
        <mxCell id="4ola4s-RT9T-j_ui_mHm-137" value="有步骤" style="rounded=1;fillColor=#23445D;gradientColor=none;strokeColor=none;fontColor=#FFFFFF;fontStyle=1;fontFamily=Tahoma;fontSize=14" vertex="1" parent="1">
          <mxGeometry x="1510" y="635.5" width="130" height="60" as="geometry" />
        </mxCell>
        <mxCell id="4ola4s-RT9T-j_ui_mHm-138" value="MVP" style="rounded=1;fillColor=#23445D;gradientColor=none;strokeColor=none;fontColor=#FFFFFF;fontStyle=1;fontFamily=Tahoma;fontSize=14" vertex="1" parent="1">
          <mxGeometry x="1510" y="725.5" width="130" height="60" as="geometry" />
        </mxCell>
        <mxCell id="4ola4s-RT9T-j_ui_mHm-139" value="周报改进" style="rounded=1;fillColor=#23445D;gradientColor=none;strokeColor=none;fontColor=#FFFFFF;fontStyle=1;fontFamily=Tahoma;fontSize=14" vertex="1" parent="1">
          <mxGeometry x="1510" y="815.5" width="130" height="60" as="geometry" />
        </mxCell>
        <mxCell id="4ola4s-RT9T-j_ui_mHm-140" value="避坑" style="rounded=1;fillColor=#23445D;gradientColor=none;strokeColor=none;fontColor=#FFFFFF;fontStyle=1;fontFamily=Tahoma;fontSize=14" vertex="1" parent="1">
          <mxGeometry x="1510" y="905.5" width="130" height="60" as="geometry" />
        </mxCell>
        <mxCell id="4ola4s-RT9T-j_ui_mHm-142" value="" style="edgeStyle=elbowEdgeStyle;elbow=horizontal;strokeWidth=2;rounded=0" edge="1" parent="1" source="4ola4s-RT9T-j_ui_mHm-135" target="4ola4s-RT9T-j_ui_mHm-136">
          <mxGeometry x="720" y="135.5" width="100" height="100" as="geometry">
            <mxPoint x="720" y="235.5" as="sourcePoint" />
            <mxPoint x="820" y="135.5" as="targetPoint" />
            <Array as="points">
              <mxPoint x="1490" y="535.5" />
            </Array>
          </mxGeometry>
        </mxCell>
        <mxCell id="4ola4s-RT9T-j_ui_mHm-143" value="" style="edgeStyle=elbowEdgeStyle;elbow=horizontal;strokeWidth=2;rounded=0" edge="1" parent="1" source="4ola4s-RT9T-j_ui_mHm-135" target="4ola4s-RT9T-j_ui_mHm-137">
          <mxGeometry x="720" y="135.5" width="100" height="100" as="geometry">
            <mxPoint x="720" y="235.5" as="sourcePoint" />
            <mxPoint x="820" y="135.5" as="targetPoint" />
            <Array as="points">
              <mxPoint x="1490" y="575.5" />
            </Array>
          </mxGeometry>
        </mxCell>
        <mxCell id="4ola4s-RT9T-j_ui_mHm-144" value="" style="edgeStyle=elbowEdgeStyle;elbow=horizontal;strokeWidth=2;rounded=0" edge="1" parent="1" source="4ola4s-RT9T-j_ui_mHm-135" target="4ola4s-RT9T-j_ui_mHm-138">
          <mxGeometry x="720" y="135.5" width="100" height="100" as="geometry">
            <mxPoint x="720" y="235.5" as="sourcePoint" />
            <mxPoint x="820" y="135.5" as="targetPoint" />
            <Array as="points">
              <mxPoint x="1490" y="625.5" />
            </Array>
          </mxGeometry>
        </mxCell>
        <mxCell id="4ola4s-RT9T-j_ui_mHm-145" value="" style="edgeStyle=elbowEdgeStyle;elbow=horizontal;strokeWidth=2;rounded=0" edge="1" parent="1" source="4ola4s-RT9T-j_ui_mHm-135" target="4ola4s-RT9T-j_ui_mHm-139">
          <mxGeometry x="720" y="135.5" width="100" height="100" as="geometry">
            <mxPoint x="720" y="235.5" as="sourcePoint" />
            <mxPoint x="820" y="135.5" as="targetPoint" />
            <Array as="points">
              <mxPoint x="1490" y="665.5" />
            </Array>
          </mxGeometry>
        </mxCell>
        <mxCell id="4ola4s-RT9T-j_ui_mHm-146" value="" style="edgeStyle=elbowEdgeStyle;elbow=horizontal;strokeWidth=2;rounded=0" edge="1" parent="1" source="4ola4s-RT9T-j_ui_mHm-135" target="4ola4s-RT9T-j_ui_mHm-140">
          <mxGeometry x="720" y="135.5" width="100" height="100" as="geometry">
            <mxPoint x="720" y="235.5" as="sourcePoint" />
            <mxPoint x="820" y="135.5" as="targetPoint" />
            <Array as="points">
              <mxPoint x="1490" y="705.5" />
            </Array>
          </mxGeometry>
        </mxCell>
        <mxCell id="4ola4s-RT9T-j_ui_mHm-148" value="改进后的完善" style="rounded=1;fillColor=#23445D;gradientColor=none;strokeColor=none;fontColor=#FFFFFF;fontStyle=1;fontFamily=Tahoma;fontSize=14" vertex="1" parent="1">
          <mxGeometry x="977" y="455.5" width="130" height="60" as="geometry" />
        </mxCell>
        <mxCell id="4ola4s-RT9T-j_ui_mHm-149" value="季度" style="rounded=1;fillColor=#23445D;gradientColor=none;strokeColor=none;fontColor=#FFFFFF;fontStyle=1;fontFamily=Tahoma;fontSize=14" vertex="1" parent="1">
          <mxGeometry x="977" y="545.5" width="130" height="60" as="geometry" />
        </mxCell>
        <mxCell id="4ola4s-RT9T-j_ui_mHm-150" value="年中" style="rounded=1;fillColor=#23445D;gradientColor=none;strokeColor=none;fontColor=#FFFFFF;fontStyle=1;fontFamily=Tahoma;fontSize=14" vertex="1" parent="1">
          <mxGeometry x="977" y="635.5" width="130" height="60" as="geometry" />
        </mxCell>
        <mxCell id="4ola4s-RT9T-j_ui_mHm-151" value="年终" style="rounded=1;fillColor=#23445D;gradientColor=none;strokeColor=none;fontColor=#FFFFFF;fontStyle=1;fontFamily=Tahoma;fontSize=14" vertex="1" parent="1">
          <mxGeometry x="977" y="725.5" width="130" height="60" as="geometry" />
        </mxCell>
        <mxCell id="4ola4s-RT9T-j_ui_mHm-155" value="" style="edgeStyle=elbowEdgeStyle;elbow=horizontal;strokeWidth=2;rounded=0" edge="1" parent="1" source="4ola4s-RT9T-j_ui_mHm-148" target="4ola4s-RT9T-j_ui_mHm-149">
          <mxGeometry x="187" y="135.5" width="100" height="100" as="geometry">
            <mxPoint x="187" y="235.5" as="sourcePoint" />
            <mxPoint x="287" y="135.5" as="targetPoint" />
            <Array as="points">
              <mxPoint x="957" y="535.5" />
            </Array>
          </mxGeometry>
        </mxCell>
        <mxCell id="4ola4s-RT9T-j_ui_mHm-156" value="" style="edgeStyle=elbowEdgeStyle;elbow=horizontal;strokeWidth=2;rounded=0" edge="1" parent="1" source="4ola4s-RT9T-j_ui_mHm-148" target="4ola4s-RT9T-j_ui_mHm-150">
          <mxGeometry x="187" y="135.5" width="100" height="100" as="geometry">
            <mxPoint x="187" y="235.5" as="sourcePoint" />
            <mxPoint x="287" y="135.5" as="targetPoint" />
            <Array as="points">
              <mxPoint x="957" y="575.5" />
            </Array>
          </mxGeometry>
        </mxCell>
        <mxCell id="4ola4s-RT9T-j_ui_mHm-157" value="" style="edgeStyle=elbowEdgeStyle;elbow=horizontal;strokeWidth=2;rounded=0" edge="1" parent="1" source="4ola4s-RT9T-j_ui_mHm-148" target="4ola4s-RT9T-j_ui_mHm-151">
          <mxGeometry x="187" y="135.5" width="100" height="100" as="geometry">
            <mxPoint x="187" y="235.5" as="sourcePoint" />
            <mxPoint x="287" y="135.5" as="targetPoint" />
            <Array as="points">
              <mxPoint x="957" y="625.5" />
            </Array>
          </mxGeometry>
        </mxCell>
        <mxCell id="4ola4s-RT9T-j_ui_mHm-161" value="无法达成目标的因素" style="rounded=1;fillColor=#23445D;gradientColor=none;strokeColor=none;fontColor=#FFFFFF;fontStyle=1;fontFamily=Tahoma;fontSize=14" vertex="1" parent="1">
          <mxGeometry x="1220" y="455.5" width="130" height="60" as="geometry" />
        </mxCell>
        <mxCell id="4ola4s-RT9T-j_ui_mHm-162" value="制定 OKR 方法" style="rounded=1;fillColor=#23445D;gradientColor=none;strokeColor=none;fontColor=#FFFFFF;fontStyle=1;fontFamily=Tahoma;fontSize=14" vertex="1" parent="1">
          <mxGeometry x="1220" y="545.5" width="130" height="60" as="geometry" />
        </mxCell>
        <mxCell id="4ola4s-RT9T-j_ui_mHm-163" value="控制好 责任-成果 的节奏" style="rounded=1;fillColor=#23445D;gradientColor=none;strokeColor=none;fontColor=#FFFFFF;fontStyle=1;fontFamily=Tahoma;fontSize=14" vertex="1" parent="1">
          <mxGeometry x="1220" y="635.5" width="180" height="60" as="geometry" />
        </mxCell>
        <mxCell id="4ola4s-RT9T-j_ui_mHm-168" value="" style="edgeStyle=elbowEdgeStyle;elbow=horizontal;strokeWidth=2;rounded=0" edge="1" parent="1" source="4ola4s-RT9T-j_ui_mHm-161" target="4ola4s-RT9T-j_ui_mHm-162">
          <mxGeometry x="430" y="135.5" width="100" height="100" as="geometry">
            <mxPoint x="430" y="235.5" as="sourcePoint" />
            <mxPoint x="530" y="135.5" as="targetPoint" />
            <Array as="points">
              <mxPoint x="1200" y="535.5" />
            </Array>
          </mxGeometry>
        </mxCell>
        <mxCell id="4ola4s-RT9T-j_ui_mHm-169" value="" style="edgeStyle=elbowEdgeStyle;elbow=horizontal;strokeWidth=2;rounded=0" edge="1" parent="1" source="4ola4s-RT9T-j_ui_mHm-161" target="4ola4s-RT9T-j_ui_mHm-163">
          <mxGeometry x="430" y="135.5" width="100" height="100" as="geometry">
            <mxPoint x="430" y="235.5" as="sourcePoint" />
            <mxPoint x="530" y="135.5" as="targetPoint" />
            <Array as="points">
              <mxPoint x="1200" y="575.5" />
            </Array>
          </mxGeometry>
        </mxCell>
        <mxCell id="4ola4s-RT9T-j_ui_mHm-174" value="" style="edgeStyle=elbowEdgeStyle;elbow=vertical;strokeWidth=2;rounded=0" edge="1" parent="1">
          <mxGeometry x="219.5" y="135.5" width="100" height="100" as="geometry">
            <mxPoint x="1284.5" y="415.5" as="sourcePoint" />
            <mxPoint x="1284.5" y="455.5" as="targetPoint" />
            <Array as="points">
              <mxPoint x="1412.5" y="430" />
            </Array>
          </mxGeometry>
        </mxCell>
      </root>
    </mxGraphModel>
  </diagram>
</mxfile>
